<svg version="1" xmlns="http://www.w3.org/2000/svg" width="346.667" height="346.667" viewBox="0 0 260.000000 260.000000"><path d="M25.5 77.2c-3.3.4-9 1.7-12.8 2.8L6 82.1v6c0 5.4.2 6 1.8 5.4 12.7-5.4 21.7-6.8 31.1-4.9 9.9 2 14.8 7 15.9 15.6l.4 3.8-13.4.1c-13.7.1-15.5.2-22.3 2C6.4 113.7-.3 123 .5 136.8c.6 10.8 6.8 19 16.5 21.9 6 1.7 15.7 1.9 20.8.4 5.2-1.6 11.8-5.8 14.6-9.3l2.6-3.3v5.7c0 3.2.3 5.8.8 5.9 3.3.4 10.6.3 11.4-.2 1.2-.7 1.4-47.5.3-55-.8-5.3-4.4-13.4-7.7-17.1-3.5-3.9-11.4-7.6-17.8-8.3-9.7-1.1-10.4-1.1-16.5-.3zm29.2 47.4c-.7 7.7-3.4 13.7-8.2 18.6-8.5 8.5-26.4 7.7-31.1-1.4-2.2-4.3-2.2-11.7.1-15.6 3.5-5.8 10.2-7.7 28.9-7.9l10.8-.2-.5 6.5zM128.6 77.2c-6.6.9-13.1 4.2-16.9 8.8-1.4 1.6-2.8 3-3 3-.3 0-.5-1.9-.4-4.3 0-2.4-.2-4.8-.6-5.3-.5-.8-8-1.1-11.9-.5-.5 0-.8 24.8-.8 55v54.9l6.5-.1c3.9 0 6.5-.5 6.6-1.1.1-.6.1-9.9.1-20.6v-19.5l4.8 4.6c11.5 11.2 30.7 10.9 42.1-.5 8.3-8.3 12.1-20.2 11.5-35.6-.5-10.5-2.1-16.7-6-23.5-7-11.9-17.9-17.1-32-15.3zm11.2 12.5c8.9 4.2 13.8 16 13 31.6-.6 10.9-3.3 18.2-8.5 22.8-4.5 3.9-7.6 5-13.9 5-9.8 0-17.4-6.5-20.6-17.6-1.5-5.1-1.5-20.8 0-26 4.2-14.8 17.3-21.7 30-15.8zM222.4 77.1c-6.7.9-14 4.5-17.2 8.6-1.3 1.8-2.7 3.3-3.1 3.3-.4 0-.6-2.4-.5-5.3l.1-5.3-6.6.1h-6.6v110h13v-41.6l3.5 4c5.9 6.8 12.4 9.4 22.8 9.2 14.8-.1 26.4-10.4 30.7-27.1 2.3-8.7 1.6-26.1-1.4-33.9-3.6-9.6-10.5-17.3-18.1-20.3-4.3-1.7-11.3-2.4-16.6-1.7zm9.2 11.9c4.1 1.4 9.3 6.6 11.5 11.5 5.2 11.8 4.1 30.6-2.3 40.1-6.5 9.5-21.7 11.3-30.5 3.7-3.3-2.9-7.1-11.2-8-17.4-3.9-26.6 9.8-44.3 29.3-37.9z"/></svg>